# xmcd
#
# Track frame offsets: 
#        200
#        19560
#        36130
#        54387
#
# Disc length: 971 seconds
#
# Revision: 4
# Processed by: cddbd v1.5.2PL0 Copyright (c) Steve Scherf et al.
# Submitted via: ExactAudioCopy v1.0b4
#
DISCID=2503c904
DTITLE=T´Pau - Whenever You Need Me
DYEAR=1991
DGENRE=Pop
TTITLE0=Whenever You Need Me
TTITLE1=Heart And Soul
TTITLE2=China In Your Hand
TTITLE3=I Will Be With You
EXTD=
EXTT0=
EXTT1=
EXTT2=
EXTT3=
PLAYORDER=
